<svg xmlns="http://www.w3.org/2000/svg" width="21" height="24" fill="none" class="inline-block h-5 w-auto mr-2"><path fill="#FFBC0D" d="M19.27 7.596c-.31-.089-.643-.067-1.017-.11V3.791c0-.661-.204-.87-.825-.882h-1.36c0-.297.011-.55 0-.782-.021-.441-.235-.65-.664-.662-.235-.01-.481 0-.717 0-.77 0-.77 0-.803-.783-.01-.374-.182-.65-.524-.661-.953-.033-1.906-.011-2.902-.011v1.433c-.171.011-.31.022-.439.022-.14 0-.289-.01-.471-.022 0-.264.01-.496 0-.727C9.538.276 9.312.01 8.895 0c-.707 0-1.413 0-2.12.011-.407.011-.621.265-.642.684-.011.242 0 .485 0 .782-.536 0-1.028-.01-1.52 0-.43.011-.633.232-.654.662-.01.242 0 .485 0 .782-.492 0-.931-.01-1.37 0-.632.011-.803.188-.814.838v3.374c0 .143-.021.286-.032.452-.129-.034-.204-.056-.279-.067-.717-.154-1.606.408-1.445 1.39.61 3.582 1.146 7.187 1.724 10.78.107.673.557 1.037 1.231 1.06.332.01.664 0 1.07 0v1.609c0 .838.354 1.356 1.04 1.554.663.187 1.241-.088 1.659-.816.375-.65.76-1.29 1.103-1.962.16-.309.353-.408.685-.408 2.816.011 5.62.011 8.437.011.77 0 1.188-.375 1.306-1.146.567-3.583 1.145-7.166 1.724-10.749.096-.573-.161-1.08-.728-1.245Zm-3.148-3.363c.878-.154.889-.143.889.728 0 .926-.033 1.863.01 2.789.022.463-.128.716-.557.816-.096.022-.192.066-.342.12V4.234Zm-2.238 4.63V3.351c0-.595 0-.595.589-.584.107 0 .203.022.343.033.01.165.021.309.021.452V8.6c0 .595 0 .595-.557.716-.117.022-.225.044-.396.066v-.518Zm-2.141-7.54h.9c.01.187.02.353.02.529v7.033c0 .816-.064.871-.92.794V1.323ZM9.58 2.789h.867v7H9.58v-7ZM7.417 1.312h.846v8.4c-.278-.033-.546-.055-.846-.088V1.312ZM5.201 2.789h.91v6.57c-.053.011-.086.022-.107.011-.803-.154-.803-.154-.803-.992V2.79ZM3.488 4.2c.203 0 .482-.11.482.287-.01 1.356 0 2.712-.01 4.068 0 .044-.022.077-.044.165-.257-.11-.524-.21-.76-.342-.075-.033-.128-.176-.128-.264-.011-1.213-.011-2.426-.011-3.627-.01-.397.268-.298.471-.287Zm14.99 6.063c-.472 2.922-.943 5.832-1.393 8.764-.053.342-.182.42-.481.42-2.805 0-5.621.021-8.437 0-.578 0-.942.165-1.22.705-.376.75-.825 1.477-1.243 2.205-.064.12-.16.22-.246.33-.054-.022-.096-.033-.15-.055v-1.257c0-.374.01-.738 0-1.113-.01-.54-.257-.794-.792-.805-.493-.01-.985 0-1.531 0-.557-3.505-1.114-7-1.67-10.461 5.77 2.81 11.53 2.92 17.334.01-.043.386-.097.827-.172 1.257Z"/><path fill="#FFBC0D" d="M16.347 13.107c-.065.463-.15.916-.247 1.368-.085.352-.396.562-.728.485-.342-.078-.514-.31-.514-.772.075-.408.14-.915.279-1.4.085-.32.364-.463.696-.408.31.077.556.397.514.727ZM15.661 16.823c-.021.452-.289.771-.663.76-.354-.01-.643-.33-.621-.705.021-.463.289-.75.674-.75.386.011.632.276.61.695Z"/></svg>